#!OML:ASF F:\VICON\USERDATA\INSTALL\rory3\rory3.ASF
:FULLY-SPECIFIED
:DEGREES
19
root 0.8463983135630433 17.913098119919916 -4.401009766309832 -4.044090031567595 -1.0021741203736052 2.357318996344132
lfemur 0.11127606957177782 -4.089152866720173 -28.401487640619223
ltibia 25.65890334562419
lfoot -17.179987704429497 1.2625043803086822
ltoes 6.1891666197253965
rfemur -30.56248691329056 -1.720793284382871 19.07720988108628
rtibia 56.2653904849823
rfoot -10.777097560272493 -9.778443521444736
rtoes -2.3390620251818435
lowerback 11.680485583265211 -0.26079503071746085 -2.241361629309691
upperback 0.5452592841641428 -0.5976916035513415 0.7494558716179343
thorax -5.953631516958904 -0.22203808448335238 2.1521833454165398
lowerneck -16.137002274321123 -2.751196281560171 -1.5095569324211462
upperneck 22.34738790421037 -3.2158094702273026 -0.9678538820883673
head 9.759249732280038 -1.7350148290059295 -0.5050680950355777
lclavicle -4.533851499001852e-16 -7.764982017229946e-16
lhumerus -26.301807215149424 0.3061733657426844 81.03909279264242
lradius 26.75899578341994
lwrist 5.634778940063083
lhand -28.147300922211436 16.846307014174158
lfingers 7.12502
lthumb -1.528130922091886 46.820606984923955
rclavicle -4.533851499001852e-16 -7.764982017229946e-16
rhumerus -30.73549603642521 -23.162293260644716 -77.13480317437659
rradius 24.423504587847717
rwrist 5.420807118858352
rhand -17.705101455418557 24.62129061304165
rfingers 7.12502
rthumb 8.554898543470431 -5.1853894779807606
20
root 0.7923675867048103 17.92259743577433 -3.6966301258268626 -3.416144038572494 -0.49240182997486226 2.785497909949383
lfemur 3.9972516144839076 -3.3273351707690977 -28.620987321306117
ltibia 21.374805825115036
lfoot -17.550987272861505 -0.1304076520692221
ltoes 2.483972021041183
rfemur -31.212586467110487 -0.5718359255463183 18.460610808375506
rtibia 44.20809693885325
rfoot -8.286160029451555 -10.984991329618328
rtoes -5.409107704182468
lowerback 11.269589194920819 -0.5300272533687365 -3.0926396306385415
upperback 0.5493901604076293 -1.0473827305750079 0.88369716539067
thorax -5.677745515610269 -0.4234642423620891 2.840170436570678
lowerneck -16.998687005535924 -2.692578069386384 -1.7603530606621747
upperneck 22.40208727055096 -3.1416107779121853 -0.586464527072948
head 9.952333067361554 -1.6755975358833413 -0.33511801884556375
lclavicle -4.533851309123046e-16 -7.764981973281279e-16
lhumerus -24.087210553331026 -0.5319992161594165 80.85319377315913
lradius 28.69309180902867
lwrist 7.747152939179402
lhand -21.590230476958432 46.07185033016165
lfingers 7.12502
lthumb 4.804479522895649 75.99735043887824
rclavicle -4.533851309123046e-16 -7.764981973281279e-16
rhumerus -31.684894550123147 -23.1002933413897 -76.59420436593784
rradius 24.566404285760502
rwrist 5.0882878027029825
rhand -17.490403070757598 24.143092499608844
rfingers 7.12502
rthumb 8.762096928023622 -5.654997610058737
21
root 0.6636162481186236 18.035319049243054 0.7344542501911846 -2.0096734449013187 0.8069785950062327 1.6652601217300966
lfemur 7.469210556608191 -2.681479438848075 -27.876154774474244
ltibia 17.517432751753688
lfoot -17.60777429055327 0.6157277681924143
ltoes 2.3754256625855033
rfemur -27.157449210921904 2.7932423585548825 18.080652928124753
rtibia 31.62143400621044
rfoot -6.926784805296916 -13.419959593868693
rtoes -2.6600973169901856
lowerback 9.754175033329716 -0.755492445334262 -3.64724983819844
upperback 0.6249553210302792 -1.4227425159156037 0.511992132639574
thorax -4.898179962210497 -0.7413285715410124 2.564407692958536
lowerneck -16.168588454796712 -2.7947026368819223 -1.9420390262119842
upperneck 21.576644815261194 -3.498879384135132 -0.7706103700755407
head 9.508795072387617 -1.8117894915661052 -0.3671895560528093
lclavicle -4.536402171652071e-16 -7.766953369635624e-16
lhumerus -23.7467054748263 -2.634797682645548 80.4063959926913
lradius 30.088287979251504
lwrist 7.667932615537481
lhand -27.50221752419305 24.002135653676746
lfingers 7.12502
lthumb -0.9810409414871599 53.605948997908676
rclavicle -4.535519850875408e-16 -7.766271424636736e-16
rhumerus -30.787135635533307 -24.113128638295475 -76.1435744163691
rradius 25.2640973227593
rwrist 4.631294076886512
rhand -17.55226915512991 23.853317105007612
rfingers 7.12502
rthumb 8.717272138311456 -6.203169225146169
22
root 0.5865092000030784 18.01329259496122 1.247817805630259 -1.2375047791728158 1.8079761402426384 1.8843295135741798
lfemur 11.20103250628397 -2.8142541439367434 -27.787567492726247
ltibia 13.376271778641716
lfoot -17.315164307284796 0.22972640983376635
ltoes 1.294726249376572
rfemur -26.415457354597397 6.794965256339927 15.208034284119723
rtibia 20.27034925412016
rfoot -9.105243787444461 -16.725835484477678
rtoes 1.1786240211180314
lowerback 9.292984299749808 -0.9810893170356867 -4.232549039628629
upperback 0.5496104139767831 -1.7009633887959084 0.6149267142522911
thorax -4.67385897090824 -0.8799688549873094 3.016261606748417
lowerneck -16.213386858869743 -2.847103746877881 -1.9322592773250378
upperneck 21.430871087245446 -3.788715780851299 -0.5305635378400788
head 9.510669200793926 -1.9101575499338324 -0.3361802409464348
lclavicle -4.536402370979974e-16 -7.766953523695995e-16
lhumerus -22.822094217110703 -3.2357193572680902 80.0774824373832
lradius 31.31975260994941
lwrist 8.224694598930311
lhand -26.734454707802154 27.11594000416622
lfingers 7.12502
lthumb -0.03235528418239286 57.45383579688043
rclavicle -4.535524067459386e-16 -7.766274683631006e-16
rhumerus -31.664058089273283 -25.10479135837604 -75.32929705970628
rradius 25.49924878654114
rwrist 4.552368893123752
rhand -17.694010197950952 23.726257729344837
rfingers 7.12502
rthumb 8.347274358533015 -6.564912443769995
23
root 0.5172297926345494 17.974647523018888 2.0149322937181786 -0.7138711165067255 2.560182585762211 2.213253173606943
lfemur 13.77524169319336 -3.9539784954240407 -27.66715598498023
ltibia 11.43640118771803
lfoot -16.653081801677036 -0.28594898428704196
ltoes -0.9656248520077613
rfemur -25.75176898029876 7.756874137442868 14.481528247524192
rtibia 14.747920542254004
rfoot -10.595645963563577 -16.21412393863458
rtoes 5.060689744309841
lowerback 9.133652860295808 -1.082825665927398 -4.40349316538506
upperback 0.4878352374902448 -1.909438505209583 0.7241510559926594
thorax -4.5089034453509385 -0.9815883321404796 3.1673890023760656
lowerneck -16.20183180335363 -2.915579296858584 -1.8824750131196526
upperneck 21.352789840482018 -4.048448274567703 -0.3453401420132748
head 9.49469008210745 -1.9784189812915247 -0.30410682637958275
lclavicle -4.536398469873322e-16 -7.766950508533889e-16
lhumerus -22.012044729465185 -2.8110773102286757 79.75247721855604
lradius 32.081245542844016
lwrist 8.796016680250517
lhand -27.987363926296407 22.97312079580959
lfingers 7.12502
lthumb -1.0494138490686433 53.84441576274505
rclavicle -4.535518865506326e-16 -7.766270663045789e-16
rhumerus -32.410258001188524 -26.043800471715603 -74.58644989067136
rradius 25.256185111795745
rwrist 4.537754819370078
rhand -18.05964750683994 23.039792347596272
rfingers 7.12502
rthumb 8.008054308685196 -7.165096712604475
24
root 0.44392731617738096 17.932624474013352 2.878965554320228 -0.5546370938270779 2.8947654877403184 2.2803943904857826
lfemur 14.946814462059338 -5.410980209095167 -27.11763911123493
ltibia 13.14190908646173
lfoot -15.574945739394956 -1.2273632429625863
ltoes -3.1047676454062088
rfemur -26.445663143385115 3.9696995399121695 17.361037271757986
rtibia 17.788884540346643
rfoot -8.915303363819248 -11.915621003052735
rtoes 6.7744509650569915
lowerback 9.23066940309834 -1.0918000559392644 -4.2694875581586365
upperback 0.4430324897343053 -1.9578789523609659 0.8363596462056314
thorax -4.465832089061994 -1.0103684004870925 3.2358954317493938
lowerneck -16.35025609358657 -2.986594510630637 -1.8976976963815713
upperneck 21.345266097014175 -4.261448470271149 -0.1839952237065996
head 9.541651516368333 -2.003859681568682 -0.21815759299549548
lclavicle -4.536389815191995e-16 -7.76694381933785e-16
lhumerus -21.55338032617086 -2.0452083882717798 79.6714548022701
lradius 32.422213154203476
lwrist 9.310536322651148
lhand -28.86776309452261 21.555474849806327
lfingers 7.12502
lthumb -1.7361252535050422 52.95958547472575
rclavicle -4.535517964829389e-16 -7.76626996691333e-16
rhumerus -33.17450146932781 -26.913761705675697 -74.03926165631611
rradius 24.58340414591492
rwrist 4.65916648155469
rhand -18.19389388323745 23.02432858250015
rfingers 7.12502
rthumb 8.000622480416206 -6.87905578567032
25
root 0.37201587856329255 17.912952262324197 3.394738334470077 -0.6159675685020336 2.7823280387445224 1.8298462091610603
lfemur 15.069030105994996 -7.178411625014464 -26.322571373029014
ltibia 15.788057782933555
lfoot -13.7381618110506 -2.7077640911685195
ltoes -4.346305576071453
rfemur -25.940506026931033 3.360865796916377 19.595706236854635
rtibia 23.124810423550226
rfoot -6.800772252237052 -9.441678616639324
rtoes 6.573909341555588
lowerback 9.208447866925855 -0.9827215502903692 -3.551384100106727
upperback 0.3694968487686034 -1.974407156855644 1.0429454316834015
thorax -4.420623467067627 -0.989313794175715 3.1898991068056297
lowerneck -16.488494689275132 -2.9925184091509203 -1.9696170969239262
upperneck 21.407033698107934 -4.412850012783574 -0.047165119548343015
head 9.577133583288495 -2.004436188127729 -0.1814055904567261
lclavicle -4.536384090033644e-16 -7.766939394367696e-16
lhumerus -21.61342233297808 -1.3058340753847082 79.82451553806398
lradius 32.266603009452254
lwrist 9.533087040982643
lhand -28.085466889515686 23.158920396753516
lfingers 7.12502
lthumb -1.310647643038216 53.6775217395507
rclavicle -4.535515414797601e-16 -7.76626799599587e-16
rhumerus -34.057215423363864 -27.938673294596118 -73.32608494974914
rradius 23.706046193900022
rwrist 5.1335842525020965
rhand -18.252367189848606 23.434623199038192
rfingers 7.12502
rthumb 7.881630765867723 -6.539227144190777
26
root 0.30829042824584707 17.925011014613478 4.146113714457302 -0.8195754036080898 2.4436648035024358 0.9811992406746635
lfemur 13.83382849223448 -8.146948539007454 -24.815301592707662
ltibia 19.80038627347649
lfoot -11.146081373729988 -4.835911161166672
ltoes -6.290265575933672
rfemur -25.823811614873616 3.752014748259105 21.06411000281288
rtibia 26.69945715975247
rfoot -4.160511255184804 -5.7083167723019805
rtoes 5.761385779350031
lowerback 9.046351185706543 -0.8771117735429705 -2.538527304062227
upperback 0.3279623152019154 -1.8684101607481687 1.3053319105271584
thorax -4.3908830684832285 -0.9191164082458642 3.0113934679448926
lowerneck -16.4670516532135 -2.9039971965166638 -2.0837149586836787
upperneck 21.536712092476204 -4.395075001526777 0.05514920654656619
head 9.617845544989654 -1.9614927789620835 -0.15783387119010256
lclavicle -4.536386063404749e-16 -7.766940919584591e-16
lhumerus -22.230695513561056 -0.4417349918269542 80.17953499946621
lradius 31.7389588932511
lwrist 9.550914617194403
lhand -27.881365681371758 24.076017755200958
lfingers 7.12502
lthumb -1.3893529902061488 53.99096060833962
rclavicle -4.535513368648834e-16 -7.76626641452918e-16
rhumerus -35.13533866125822 -29.318758591240943 -72.2768842660996
rradius 22.79229457021959
rwrist 5.681493776561515
rhand -18.43330152363328 23.250766113321838
rfingers 7.12502
rthumb 7.752096750480011 -6.696584012704704
